<svg width="56" height="57" viewBox="0 0 56 57" fill="none" xmlns="http://www.w3.org/2000/svg">
<rect x="4" y="4.5" width="48" height="48" rx="24" fill="#F4EBFF"/>
<rect x="4" y="4.5" width="48" height="48" rx="24" stroke="#F9F5FF" stroke-width="8"/>
<path d="M19.27 23.46L28 28.51L36.73 23.46M28 38.58V28.5M37 32.5V24.5C36.9996 24.1493 36.9071 23.8048 36.7315 23.5012C36.556 23.1975 36.3037 22.9454 36 22.77L29 18.77C28.696 18.5945 28.3511 18.5021 28 18.5021C27.6489 18.5021 27.304 18.5945 27 18.77L20 22.77C19.6963 22.9454 19.444 23.1975 19.2685 23.5012C19.0929 23.8048 19.0004 24.1493 19 24.5V32.5C19.0004 32.8508 19.0929 33.1952 19.2685 33.4989C19.444 33.8025 19.6963 34.0547 20 34.23L27 38.23C27.304 38.4056 27.6489 38.498 28 38.498C28.3511 38.498 28.696 38.4056 29 38.23L36 34.23C36.3037 34.0547 36.556 33.8025 36.7315 33.4989C36.9071 33.1952 36.9996 32.8508 37 32.5Z" stroke="#7F56D9" stroke-width="2" stroke-linecap="round" stroke-linejoin="round"/>
</svg>
