<svg width="19" height="19" viewBox="0 0 19 19" fill="none" xmlns="http://www.w3.org/2000/svg">
<g clip-path="url(#clip0_608_17283)">
<path d="M0 9.12C0 4.82078 0 2.67119 1.33559 1.33559C2.67119 0 4.82078 0 9.12 0H9.88C14.1792 0 16.3288 0 17.6644 1.33559C19 2.67119 19 4.82078 19 9.12V9.88C19 14.1792 19 16.3288 17.6644 17.6644C16.3288 19 14.1792 19 9.88 19H9.12C4.82078 19 2.67119 19 1.33559 17.6644C0 16.3288 0 14.1792 0 9.88V9.12Z" fill="#7F57D9"/>
<path d="M10.1093 13.688C5.77893 13.688 3.30897 10.7192 3.20605 5.77921H5.37522C5.44647 9.40504 7.0456 10.9409 8.31226 11.2575V5.77921H10.3548V8.90629C11.6057 8.77171 12.9197 7.34671 13.363 5.77921H15.4056C15.0651 7.71087 13.6401 9.13587 12.6268 9.72171C13.6401 10.1967 15.2631 11.4396 15.8806 13.688H13.6322C13.1493 12.1838 11.9461 11.02 10.3548 10.8617V13.688H10.1093Z" fill="white"/>
</g>
<defs>
<clipPath id="clip0_608_17283">
<rect width="19" height="19" fill="white"/>
</clipPath>
</defs>
</svg>
