<svg width="53" height="49" viewBox="0 0 53 49" fill="none" xmlns="http://www.w3.org/2000/svg">
<path d="M33.0361 5.90159C20.1518 13.6824 12.9982 27.9125 8.69879 41.8295C8.47774 42.5447 8.20752 43.2625 7.96063 43.9611C7.27025 42.5682 2.55943 31.0004 0.657542 31.7076C-0.453978 32.121 0.181839 33.6065 0.426451 34.2058C2.19701 38.5378 3.92671 42.4215 6.04226 46.6108C7.63454 49.7645 10.5975 48.9424 13.5326 47.9826C18.0137 46.5171 18.3773 46.097 22.9669 44.4103C23.7233 44.1322 24.5181 43.9073 25.2193 43.5599C26.0436 43.1508 26.9274 42.2851 26.4898 41.3416C25.9938 40.2722 24.9147 40.3477 23.993 40.7403C23.8006 40.8228 23.6052 40.8983 23.408 40.9692C21.2417 41.7469 11.4098 45.8957 11.0823 45.1943C10.9717 44.9581 11.0091 44.6833 11.0509 44.4261C12.2544 37.0039 15.4417 29.9337 19.2069 23.4737C21.7402 19.1266 24.9916 15.2 28.7804 11.888C31.8249 9.22637 35.2574 6.9666 38.9965 5.40689C43.006 3.73409 46.8862 3.38942 51.1695 3.135C53.6353 2.98878 51.6823 0.639521 50.3103 0.374905C48.8025 0.0836363 47.1882 0.606703 45.7234 0.91164C41.0895 1.87872 36.8577 3.59386 33.0361 5.90159Z" fill="#6941C6"/>
</svg>
