<svg width="66" height="66" viewBox="0 0 66 66" fill="none" xmlns="http://www.w3.org/2000/svg">
<rect x="5" y="5" width="56" height="56" rx="28" fill="#F4EBFF"/>
<rect x="5" y="5" width="56" height="56" rx="28" stroke="#F9F5FF" stroke-width="10"/>
<path d="M43.5 32.4167C43.504 33.9565 43.1442 35.4756 42.45 36.85C41.6268 38.4971 40.3614 39.8824 38.7954 40.8509C37.2293 41.8193 35.4246 42.3327 33.5833 42.3334C32.0435 42.3374 30.5245 41.9776 29.15 41.2834L22.5 43.5L24.7167 36.85C24.0224 35.4756 23.6627 33.9565 23.6667 32.4167C23.6674 30.5754 24.1807 28.7707 25.1492 27.2047C26.1176 25.6387 27.503 24.3732 29.15 23.55C30.5245 22.8558 32.0435 22.496 33.5833 22.5H34.1667C36.5984 22.6342 38.8952 23.6606 40.6173 25.3827C42.3394 27.1048 43.3658 29.4016 43.5 31.8334V32.4167Z" stroke="#7F56D9" stroke-width="2" stroke-linecap="round" stroke-linejoin="round"/>
</svg>
